<?xml version="1.0" standalone="no"?>
<!DOCTYPE svg PUBLIC "-//W3C//DTD SVG 20010904//EN"
 "http://www.w3.org/TR/2001/REC-SVG-20010904/DTD/svg10.dtd">
<svg version="1.0" xmlns="http://www.w3.org/2000/svg"
 width="1000.000000pt" height="1000.000000pt" viewBox="0 0 1000.000000 1000.000000"
 preserveAspectRatio="xMidYMid meet">
<metadata>
Created by potrace 1.11, written by Peter Selinger 2001-2013
</metadata>
<g transform="translate(0.000000,1000.000000) scale(0.100000,-0.100000)"
fill="#000000" stroke="none">
<path d="M3433 8112 c-87 -26 -167 -76 -243 -153 -113 -114 -179 -255 -201
-430 -20 -158 12 -363 78 -493 33 -64 125 -156 185 -184 298 -139 733 104 819
458 21 82 15 258 -10 355 -56 212 -185 374 -349 435 -80 31 -198 35 -279 12z"/>
<path d="M6084 7464 c-92 -144 -150 -309 -161 -459 -22 -302 194 -614 468
-675 32 -7 92 -11 140 -8 107 5 195 46 278 128 142 139 211 301 211 493 0 113
-23 233 -48 246 -9 5 -199 80 -422 166 -223 86 -410 159 -417 162 -7 3 -28
-21 -49 -53z"/>
<path d="M4180 5399 c-346 -38 -796 -169 -909 -264 -48 -41 -81 -117 -81 -188
0 -99 45 -175 132 -222 80 -44 154 -40 278 12 145 61 301 104 510 139 133 22
461 30 602 14 543 -59 1007 -281 1443 -688 117 -109 150 -126 240 -126 78 0
118 15 173 68 56 52 76 101 76 181 0 93 -19 127 -136 241 -459 446 -999 719
-1623 820 -119 19 -574 28 -705 13z"/>
<path d="M1500 5321 c-131 -25 -257 -97 -370 -211 -78 -80 -123 -152 -161
-262 -37 -110 -49 -188 -49 -335 0 -146 11 -234 53 -413 28 -123 31 -150 31
-305 1 -206 -10 -252 -119 -520 -92 -227 -115 -303 -154 -495 -93 -469 -113
-817 -66 -1135 59 -388 227 -781 442 -1027 334 -384 920 -578 1676 -555 416
13 651 36 907 87 338 69 575 173 707 313 127 134 193 378 152 567 -11 50 -10
52 39 149 70 137 118 292 133 426 14 128 20 146 101 283 111 188 141 322 99
452 -11 35 -19 65 -18 67 2 1 156 7 342 13 713 22 911 71 1061 263 150 192
194 340 174 582 -13 158 -36 233 -100 329 -79 117 -216 231 -347 287 -76 32
-202 59 -281 59 -41 0 -421 -49 -845 -110 -1384 -196 -1875 -252 -2018 -229
-72 11 -162 49 -197 82 -50 47 -56 71 -46 207 31 439 -23 674 -214 930 -155
207 -434 417 -637 479 -78 24 -224 35 -295 22z m205 -485 c28 -13 82 -46 120
-73 201 -143 311 -291 351 -471 17 -75 16 -126 -2 -422 -24 -381 237 -670 661
-732 196 -28 648 21 2147 232 389 55 734 100 767 100 32 0 74 -6 92 -14 53
-22 116 -72 144 -114 22 -34 25 -49 28 -149 l2 -111 -40 -58 c-34 -50 -48 -62
-90 -76 -106 -35 -334 -52 -910 -68 -492 -13 -609 -33 -708 -121 -83 -72 -111
-214 -62 -309 23 -44 99 -125 144 -152 62 -37 111 -79 111 -95 0 -8 -25 -56
-56 -108 -30 -51 -70 -128 -89 -171 -33 -75 -41 -113 -65 -293 -20 -149 -86
-287 -196 -411 -32 -36 -66 -74 -76 -86 -19 -21 -18 -22 48 -104 63 -78 67
-85 66 -134 -1 -97 -41 -151 -146 -196 -128 -54 -387 -115 -624 -147 -192 -25
-881 -25 -1042 0 -436 68 -727 220 -891 466 -66 98 -149 271 -188 391 -71 218
-96 408 -88 660 6 185 19 288 68 540 44 225 52 254 139 475 132 335 161 461
161 700 0 154 -14 259 -62 470 -31 135 -33 353 -5 434 20 57 71 122 121 153
42 25 109 23 170 -6z"/>
</g>
</svg>
