<?xml version="1.0" encoding="utf-8"?>
<!-- Generator: Adobe Illustrator 22.1.0, SVG Export Plug-In . SVG Version: 6.00 Build 0)  -->
<svg version="1.1" id="Layer_2" xmlns="http://www.w3.org/2000/svg" xmlns:xlink="http://www.w3.org/1999/xlink" x="0px" y="0px"
	 width="258px" height="255.1px" viewBox="0 0 258 255.1" style="enable-background:new 0 0 258 255.1;" xml:space="preserve">
<style type="text/css">
	.st0{fill:#FAC035;}
	.st1{fill:#0B0E1E;}
</style>
<path class="st0" d="M129,219.9C105.3,218.3-2.4,217.1,0,164.3s11.4-97,44.8-132.2S140.9-6.2,172.1,7.7s55.6,23.2,79.7,102.2
	c0,0,12,54.7,2.8,69.2C245.3,193.6,187.8,222,129,219.9z"/>
<g>
	<path class="st1" d="M165,151.6c-1.7,0-3.3-0.6-4.6-1.9c-32.3-32.2-68.5-15-68.8-14.8c-3.2,1.6-7.1,0.2-8.7-3
		c-1.6-3.2-0.2-7.1,3-8.7c0.5-0.2,11.5-5.6,27.3-6.1c14.6-0.5,36.2,3.2,56.4,23.4c2.5,2.5,2.6,6.6,0,9.2
		C168.3,151,166.6,151.6,165,151.6z"/>
</g>
<path class="st1" d="M105.4,64.5c0,9.9-9.1,16.4-16.7,16.4s-11.7-6.3-11.7-16.2S84.2,47,91.8,47S105.4,54.6,105.4,64.5z"/>
<path class="st1" d="M157.9,62.7l22.2,8.6c0,0,4,9.3-3.4,17.9c-7.4,8.6-16.4,2.2-16.4,2.2S145.2,81.5,157.9,62.7z"/>
<g>
	<g>
		<path class="st0" d="M34.9,127.8c0,0-8.3,4.3-4,21.6s-3.5,23.8-5.6,34.3c-2.1,10.5-7.1,29.6,4.8,49.1s42.2,16.1,48.6,16.1
			s27.5-2.5,31.2-9.3c3.7-6.8,0-11.4,0-11.4s5.6-6.2,5.9-14.8s12.4-13.3,0-20.7c-12.4-7.4,35.5-1.2,41.4-8
			c5.9-6.8,3.7-10.2,3.7-13.6s-5.9-10.5-13.6-9.9c-7.7,0.6-65.8,10.2-73.8,8.6c-8-1.5-12.7-6.2-11.4-14.5c2-13.2-3.4-20.9-13.3-27.5
			C42.6,123.7,37.6,125.2,34.9,127.8z"/>
	</g>
	<g>
		<path class="st1" d="M69.6,255.1c-13,0-34.2-2.1-44.6-19.2c-12.4-20.3-8.2-40.5-6-51.4c0.1-0.7,0.3-1.4,0.4-2
			c0.8-3.8,2.1-7,3.4-10.1c2.6-6.2,4.8-11.5,2.3-21.6c-4.6-18.6,3.2-25.8,6.2-27.8c4.3-3.8,12.1-6,20.9-0.2
			c8.1,5.4,18.7,14.7,15.9,33.4c-0.5,3.2-0.3,6.4,6.6,7.7c5,0.8,38-4,53.9-6.3c9.2-1.3,15.8-2.3,18.3-2.5c5.2-0.4,10.4,1.5,14.6,5.3
			c3.5,3.2,5.5,7.1,5.5,10.6c0,0.3,0.1,0.8,0.1,1.3c0.5,4.2,0.6,9.3-5.3,16.2c-4.4,5-14.5,5.5-30.8,5.8c-1.5,0-3.2,0.1-4.8,0.1
			c0.4,0.8,0.7,1.6,0.9,2.4c1.2,4.8-1.3,8.7-3,11.6c-1.1,1.8-2.2,3.5-2.2,5c-0.2,6.7-2.9,12-4.9,15.3c1.1,3.5,1.2,8.3-1.7,13.6
			c-6.4,11.7-36.2,12.4-36.5,12.4c-0.6,0-1.4,0-2.4,0.1C74.6,255.1,72.3,255.1,69.6,255.1z M37.9,133.1c-0.7,0.7-3.7,4.3-1.1,14.9
			c3.5,13.9,0,22.3-2.8,29.1c-1.1,2.7-2.2,5.2-2.7,7.8c-0.1,0.7-0.3,1.3-0.4,2.1c-2.2,10.6-5.5,26.5,4.4,42.7
			c8.9,14.5,32,13.6,40.7,13.3c1.2,0,2.2-0.1,2.9-0.1c8.8,0,23.9-3.3,25.9-6.2c1.6-3,0.6-4.8,0.6-4.8l-3.2-4l3.4-3.8
			c0,0,4.1-4.8,4.3-11c0.2-4.6,2.4-8.2,4-10.9c0.5-0.8,1.2-1.9,1.4-2.6c-0.3-0.3-1-1-2.5-1.9c-5.3-3.2-5.2-6.9-4.7-8.9
			c1.6-6.1,8.2-6.2,22.7-6.5c6.7-0.1,19.2-0.4,22.2-2c2.7-3.2,2.5-4.4,2.2-6.5c-0.1-0.7-0.2-1.6-0.2-2.5c-0.5-1.2-3.3-4.6-7.1-4.3
			c-2.1,0.2-9.3,1.2-17.5,2.4c-34,4.9-52.3,7.2-57.9,6.2c-11.8-2.3-17.9-10.2-16.2-21.3c1.4-9.7-1.5-15.5-10.7-21.6
			c-2.7-1.8-5-2.1-6.4-0.7l-0.9,0.9L37.9,133.1z M118.5,187.3L118.5,187.3L118.5,187.3z M153.1,180.4L153.1,180.4L153.1,180.4z
			 M155,171.6L155,171.6L155,171.6z"/>
	</g>
</g>
</svg>
